<?xml version="1.0" encoding="utf-8"?>
<!-- Generator: Adobe Illustrator 25.1.0, SVG Export Plug-In . SVG Version: 6.00 Build 0)  -->
<svg version="1.1" id="Layer_1" xmlns="http://www.w3.org/2000/svg" xmlns:xlink="http://www.w3.org/1999/xlink" x="0px" y="0px"
	 viewBox="0 0 1920 1080" style="enable-background:new 0 0 1920 1080;" xml:space="preserve">
<style type="text/css">
	.st0{fill:#07011B;}
	.st1{fill:#4F0071;}
	.st2{fill:#A01818;}
	.st3{fill:#570000;}
	.st4{fill:#6A5C71;}
	.st5{fill:#022138;}
	.st6{fill:#29023A;}
</style>
<rect class="st0" width="1920" height="1080"/>
<path class="st1" d="M1818.87,394.91c-46.3-10.76-92.6-21.53-138.89-32.29c-55.94-38.7-111.89-77.39-167.83-116.09
	c-12.26,36.89-24.51,73.79-36.77,110.68c-20.78-0.53-41.56-1.06-62.34-1.59V223.23c-36.51,25.5-73.02,51.01-109.54,76.51
	c-0.22,18.63-0.45,37.25-0.67,55.88c-15.22-0.84-30.44-1.69-45.67-2.53c-15.05-35-30.1-69.99-45.15-104.99
	c-50.43,36.37-100.85,72.74-151.28,109.12c-16.34-45.74-32.68-91.49-49.02-137.23c-36.51,7.11-73.01,14.21-109.52,21.32
	c-26.13,30.34-52.27,60.68-78.4,91.02c-63.45-51.99-126.9-103.98-190.35-155.98c11.36,72.85,22.73,145.71,34.09,218.56
	c-28.94-21.32-57.87-42.63-86.81-63.95c0.23-23.72,0.45-47.43,0.68-71.15c-48.11,25.86-96.23,51.73-144.34,77.59
	c9.9-38.06,19.79-76.12,29.69-114.17c-22.26,11.63-44.53,23.25-66.79,34.88c-17.25,8.56-34.5,17.13-51.74,25.69
	c-33.25,26.61-66.5,53.23-99.74,79.84c-13.44-30.63-26.89-61.27-40.33-91.9c-62.24,25.19-124.49,50.37-186.73,75.56
	C14.28,421.72,7.14,496.14,0,570.56c72.85,0,145.69,0,218.54,0v-11.93h118.93v-36.58h129.31v36.58h129.31v-36.58h114.65v-46.88
	h54.36v46.88h275.5v-5.51h171.42h90.81v5.51h110.21v-5.51h160.2h136.64h2.14v5.51c69.33,0.07,138.66,0.15,207.99,0.22
	c0-56.85,0-113.7,0-170.55C1886.29,366.12,1852.58,380.51,1818.87,394.91z"/>
<path class="st2" d="M1908.5,394.57h-290.4V254.1H1512.9v140.46h-49.02v-37.69h-65.36v37.69h-32.68v-37.69h-49.02v-24.89h-32.68
	v62.59h-169.53v-37.69h-65.36v37.69h-29.62v-79.95h-96v103.65h-42.16v-86.29h-94.69V181.34H656.05v213.22h-80.68v-93.2h-65.36v93.2
	h-82.72V283.46H287.37v111.11h-94.98V200.24H91.29v194.33c-30.43,0-60.86,0-91.29,0c0,61.8,0,123.59,0,185.39
	c218.68,0.33,437.37,0.67,656.05,1v35.96h130.72v-12.26h71.49h23.2h42.16v-19.14h96v-4.56h888.87V394.57z"/>
<polygon class="st3" points="1920,394.39 1629.6,394.39 1629.6,253.93 1524.4,253.93 1524.4,394.39 1475.38,394.39 1475.38,356.7 
	1410.02,356.7 1410.02,394.39 1377.34,394.39 1377.34,356.7 1328.32,356.7 1328.32,331.81 1295.64,331.81 1295.64,394.39 
	1126.11,394.39 1126.11,356.7 1060.74,356.7 1060.74,394.39 1031.13,394.39 1031.13,314.45 935.13,314.45 935.13,418.1 
	892.97,418.1 892.97,331.81 798.28,331.81 798.28,181.17 667.55,181.17 667.55,394.39 586.87,394.39 586.87,301.2 521.51,301.2 
	521.51,394.39 438.79,394.39 438.79,283.29 298.87,283.29 298.87,394.39 203.89,394.39 203.89,200.06 102.79,200.06 102.79,394.39 
	0,394.39 0,580.79 667.55,580.79 667.55,616.74 798.28,616.74 798.28,604.49 869.77,604.49 892.97,604.49 935.13,604.49 
	935.13,585.35 1031.13,585.35 1031.13,580.79 1920,580.79 "/>
<path class="st4" d="M1817.79,471.17v-45.45h-87.01v-24.68h-59.74v70.13h-40.26v-23.38h-53.25v-28.57h-15.58v51.95h-48.05v-70.13
	h-59.74v-68.83h-35.06v100h-54.55v38.96h-14.29v-58.44h-53.25V299.74h-38.96v-36.36h-64.94v81.82h-37.66v67.53h-89.61v58.44h-61.04
	V241.3H895.71v184.42h-20.78v32.47h-33.77v12.99h-72.73v-38.96H615.19v38.96h-54.55V337.4H394.41v41.56h-97.4V440h-80.52v-7.79
	h-102.6v38.96c-37.96,0-75.93,0-113.89,0C0,674.11,0,877.06,0,1080c637.83,0,1275.67,0,1913.5,0V471.17H1817.79z"/>
<polygon class="st5" points="1824.29,471.17 1824.29,425.71 1737.27,425.71 1737.27,401.04 1677.53,401.04 1677.53,471.17 
	1637.27,471.17 1637.27,447.79 1584.03,447.79 1584.03,419.22 1568.44,419.22 1568.44,471.17 1520.39,471.17 1520.39,401.04 
	1460.65,401.04 1460.65,332.21 1425.58,332.21 1425.58,432.21 1371.04,432.21 1371.04,471.17 1356.75,471.17 1356.75,412.73 
	1303.51,412.73 1303.51,299.74 1264.55,299.74 1264.55,263.38 1199.61,263.38 1199.61,345.19 1161.95,345.19 1161.95,412.73 
	1072.34,412.73 1072.34,471.17 1011.3,471.17 1011.3,241.3 902.21,241.3 902.21,425.71 881.43,425.71 881.43,458.18 847.66,458.18 
	847.66,471.17 774.94,471.17 774.94,432.21 621.69,432.21 621.69,471.17 567.14,471.17 567.14,337.4 400.91,337.4 400.91,378.96 
	303.51,378.96 303.51,440 222.99,440 222.99,432.21 120.39,432.21 120.39,471.17 0,471.17 0,1080 1920,1080 1920,471.17 "/>
<rect y="549.85" class="st6" width="1920" height="530.15"/>
<rect y="562.11" class="st5" width="1920" height="26.55"/>
<rect y="602.45" class="st5" width="1920" height="14.47"/>
<rect y="648.8" class="st5" width="1920" height="16.34"/>
<rect x="619.69" y="774.53" class="st5" width="153.25" height="18.04"/>
<polygon class="st5" points="893.02,829.68 1002.11,829.68 1002.11,774.53 872.24,774.53 872.24,800.71 893.02,800.71 "/>
<rect x="911.4" y="846.53" class="st5" width="109.09" height="185.36"/>
<polygon class="st5" points="120.39,765.34 567.14,765.34 567.14,743.73 621.69,743.73 621.69,765.34 774.94,765.34 774.94,743.73 
	847.66,743.73 847.66,760.01 881.43,760.01 881.43,765.34 1011.3,765.34 1011.3,743.73 1072.34,743.73 1072.34,765.34 
	1356.75,765.34 1356.75,743.73 1371.04,743.73 1371.04,765.34 1520.39,765.34 1520.39,743.73 1568.44,743.73 1568.44,765.34 
	1637.27,765.34 1637.27,743.73 1677.53,743.73 1677.53,765.34 1824.29,765.34 1824.29,743.73 1920,743.73 1920,680.57 0,680.57 
	0,743.73 120.39,743.73 "/>
<polygon class="st5" points="217.99,782.8 298.51,782.8 298.51,829.68 562.14,829.68 562.14,774.53 115.39,774.53 115.39,792.57 
	217.99,792.57 "/>
<polygon class="st5" points="311.51,846.53 311.51,859.32 408.91,859.32 408.91,911.42 575.14,911.42 575.14,846.53 "/>
<rect x="1562.44" y="774.53" class="st5" width="15.58" height="34.32"/>
<polygon class="st5" points="1729.27,829.68 1729.27,800.71 1816.29,800.71 1816.29,774.53 1669.53,774.53 1669.53,829.68 "/>
<polygon class="st5" points="1152.76,829.68 1294.31,829.68 1294.31,816.99 1347.56,816.99 1347.56,774.53 1063.15,774.53 
	1063.15,816.99 1152.76,816.99 "/>
<polygon class="st5" points="1161.95,846.53 1161.95,901.65 1199.61,901.65 1199.61,1004.22 1264.55,1004.22 1264.55,958.63 
	1303.51,958.63 1303.51,846.53 "/>
<polygon class="st5" points="1421.58,829.68 1516.39,829.68 1516.39,774.53 1367.04,774.53 1367.04,792.57 1421.58,792.57 "/>
<rect x="1431.58" y="846.53" class="st5" width="35.06" height="71.4"/>
</svg>
