<?xml version="1.0" encoding="utf-8"?>
<!-- Generator: Adobe Illustrator 25.2.0, SVG Export Plug-In . SVG Version: 6.00 Build 0)  -->
<svg version="1.1" id="Layer_1" xmlns="http://www.w3.org/2000/svg" xmlns:xlink="http://www.w3.org/1999/xlink" x="0px" y="0px"
	 viewBox="0 0 3840 2160" style="enable-background:new 0 0 3840 2160;" xml:space="preserve">
<style type="text/css">
	.st0{fill:#07011B;}
	.st1{fill:#4F0071;}
	.st2{fill:#A01818;}
	.st3{fill:#570000;}
	.st4{fill:#6A5C71;}
	.st5{fill:#022138;}
	.st6{fill:#29023A;}
</style>
<rect class="st0" width="3840" height="2160"/>
<path class="st1" d="M3637.74,789.81c-92.6-21.53-185.19-43.05-277.79-64.58c-111.89-77.39-223.77-154.78-335.66-232.17
	c-24.51,73.79-49.02,147.57-73.53,221.36c-41.56-1.06-83.12-2.13-124.68-3.19V446.46c-73.02,51.01-146.05,102.02-219.07,153.03
	c-0.45,37.25-0.89,74.5-1.34,111.76c-30.44-1.69-60.89-3.38-91.33-5.07c-30.1-69.99-60.2-139.99-90.3-209.98
	c-100.85,72.74-201.7,145.49-302.56,218.23c-32.68-91.49-65.36-182.98-98.04-274.47c-73.01,14.21-146.02,28.43-219.03,42.64
	c-52.27,60.68-104.53,121.36-156.8,182.04c-126.9-103.98-253.8-207.97-380.7-311.95c22.73,145.71,45.46,291.42,68.18,437.12
	c-57.87-42.63-115.74-85.26-173.62-127.9c0.45-47.43,0.91-94.87,1.36-142.3c-96.23,51.73-192.45,103.46-288.68,155.19
	c19.79-76.12,39.58-152.23,59.38-228.35c-44.53,23.25-89.06,46.51-133.59,69.76c-34.5,17.13-68.99,34.26-103.49,51.38
	c-66.5,53.23-132.99,106.45-199.49,159.68c-26.89-61.27-53.78-122.54-80.66-183.8C291.83,593.85,167.34,644.22,42.85,694.6
	C28.57,843.44,14.28,992.28,0,1141.12c145.69,0,291.39,0,437.08,0v-23.86h237.85v-73.16h258.62v73.16h258.62v-73.16h229.31v-93.77
	h108.72v93.77h551.01v-11.02h342.85h181.63v11.02h220.41v-11.02h320.39h273.27h4.27v11.02c138.66,0.15,277.32,0.3,415.98,0.45
	c0-113.7,0-227.4,0-341.11C3772.58,732.23,3705.16,761.02,3637.74,789.81z"/>
<path class="st2" d="M3817,789.14h-580.81V508.21h-210.38v280.93h-98.04v-75.39h-130.72v75.39h-65.36v-75.39h-98.04v-49.79h-65.36
	v125.17h-339.06v-75.39h-130.72v75.39h-59.23v-159.9h-192v207.3h-84.32V663.96h-189.38V362.69h-261.45v426.45h-161.36V602.74
	h-130.72v186.39H854.57V566.92H574.74v222.21H384.79V400.47H182.57v388.66c-60.86,0-121.72,0-182.57,0c0,123.59,0,247.19,0,370.78
	c437.37,0.67,874.74,1.34,1312.11,2.01v71.91h261.45v-24.51h142.98h46.4h84.32v-38.28h192v-9.13H3817V789.14z"/>
<polygon class="st3" points="3840,788.79 3259.19,788.79 3259.19,507.86 3048.81,507.86 3048.81,788.79 2950.77,788.79 
	2950.77,713.4 2820.04,713.4 2820.04,788.79 2754.68,788.79 2754.68,713.4 2656.64,713.4 2656.64,663.62 2591.28,663.62 
	2591.28,788.79 2252.21,788.79 2252.21,713.4 2121.49,713.4 2121.49,788.79 2062.26,788.79 2062.26,628.89 1870.26,628.89 
	1870.26,836.19 1785.94,836.19 1785.94,663.62 1596.55,663.62 1596.55,362.34 1335.11,362.34 1335.11,788.79 1173.74,788.79 
	1173.74,602.4 1043.02,602.4 1043.02,788.79 877.57,788.79 877.57,566.58 597.74,566.58 597.74,788.79 407.79,788.79 407.79,400.13 
	205.57,400.13 205.57,788.79 0,788.79 0,1161.58 1335.11,1161.58 1335.11,1233.49 1596.55,1233.49 1596.55,1208.98 1739.53,1208.98 
	1785.94,1208.98 1870.26,1208.98 1870.26,1170.7 2062.26,1170.7 2062.26,1161.58 3840,1161.58 "/>
<path class="st4" d="M3635.57,942.34v-90.91h-174.03v-49.35h-119.48v140.26h-80.52v-46.75h-106.49v-57.14h-31.17v103.9h-96.1V802.08
	H2908.3V664.42h-70.13v200h-109.09v77.92h-28.57V825.45h-106.49V599.48h-77.92v-72.73h-129.87v163.64h-75.32v135.06h-179.22v116.88
	H2009.6V482.6h-218.18v368.83h-41.56v64.94h-67.53v25.97h-145.45v-77.92h-306.49v77.92h-109.09V674.81H788.82v83.12H594.01V880
	H432.97v-15.58H227.78v77.92c-75.93,0-151.85,0-227.78,0C0,1348.23,0,1754.11,0,2160c1275.67,0,2551.33,0,3827,0V942.34H3635.57z"/>
<polygon class="st5" points="3648.57,942.34 3648.57,851.43 3474.55,851.43 3474.55,802.08 3355.06,802.08 3355.06,942.34 
	3274.55,942.34 3274.55,895.58 3168.05,895.58 3168.05,838.44 3136.88,838.44 3136.88,942.34 3040.78,942.34 3040.78,802.08 
	2921.3,802.08 2921.3,664.42 2851.17,664.42 2851.17,864.42 2742.08,864.42 2742.08,942.34 2713.51,942.34 2713.51,825.45 
	2607.01,825.45 2607.01,599.48 2529.09,599.48 2529.09,526.75 2399.22,526.75 2399.22,690.39 2323.9,690.39 2323.9,825.45 
	2144.68,825.45 2144.68,942.34 2022.6,942.34 2022.6,482.6 1804.42,482.6 1804.42,851.43 1762.86,851.43 1762.86,916.36 
	1695.32,916.36 1695.32,942.34 1549.87,942.34 1549.87,864.42 1243.38,864.42 1243.38,942.34 1134.29,942.34 1134.29,674.81 
	801.82,674.81 801.82,757.92 607.01,757.92 607.01,880 445.97,880 445.97,864.42 240.78,864.42 240.78,942.34 0,942.34 0,2160 
	3840,2160 3840,942.34 "/>
<rect y="1099.7" class="st6" width="3840" height="1060.3"/>
<rect y="1124.21" class="st5" width="3840" height="53.11"/>
<rect y="1204.89" class="st5" width="3840" height="28.94"/>
<rect y="1297.6" class="st5" width="3840" height="32.68"/>
<rect x="1239.38" y="1549.06" class="st5" width="306.49" height="36.08"/>
<polygon class="st5" points="1786.03,1659.36 2004.21,1659.36 2004.21,1549.06 1744.47,1549.06 1744.47,1601.42 1786.03,1601.42 "/>
<rect x="1822.8" y="1693.06" class="st5" width="218.18" height="370.72"/>
<polygon class="st5" points="240.78,1530.68 1134.29,1530.68 1134.29,1487.46 1243.38,1487.46 1243.38,1530.68 1549.87,1530.68 
	1549.87,1487.46 1695.32,1487.46 1695.32,1520.02 1762.86,1520.02 1762.86,1530.68 2022.6,1530.68 2022.6,1487.46 2144.68,1487.46 
	2144.68,1530.68 2713.51,1530.68 2713.51,1487.46 2742.08,1487.46 2742.08,1530.68 3040.78,1530.68 3040.78,1487.46 
	3136.88,1487.46 3136.88,1530.68 3274.55,1530.68 3274.55,1487.46 3355.06,1487.46 3355.06,1530.68 3648.57,1530.68 
	3648.57,1487.46 3840,1487.46 3840,1361.15 0,1361.15 0,1487.46 240.78,1487.46 "/>
<polygon class="st5" points="435.97,1565.61 597.01,1565.61 597.01,1659.36 1124.29,1659.36 1124.29,1549.06 230.78,1549.06 
	230.78,1585.14 435.97,1585.14 "/>
<polygon class="st5" points="623.01,1693.06 623.01,1718.64 817.82,1718.64 817.82,1822.84 1150.29,1822.84 1150.29,1693.06 "/>
<rect x="3124.88" y="1549.06" class="st5" width="31.17" height="68.64"/>
<polygon class="st5" points="3458.55,1659.36 3458.55,1601.42 3632.57,1601.42 3632.57,1549.06 3339.06,1549.06 3339.06,1659.36 "/>
<polygon class="st5" points="2305.51,1659.36 2588.63,1659.36 2588.63,1633.98 2695.12,1633.98 2695.12,1549.06 2126.29,1549.06 
	2126.29,1633.98 2305.51,1633.98 "/>
<polygon class="st5" points="2323.9,1693.06 2323.9,1803.3 2399.22,1803.3 2399.22,2008.43 2529.09,2008.43 2529.09,1917.26 
	2607.01,1917.26 2607.01,1693.06 "/>
<polygon class="st5" points="2843.17,1659.36 3032.78,1659.36 3032.78,1549.06 2734.08,1549.06 2734.08,1585.14 2843.17,1585.14 "/>
<rect x="2863.17" y="1693.06" class="st5" width="70.13" height="142.8"/>
</svg>
