<svg id="Layer_1" data-name="Layer 1" xmlns="http://www.w3.org/2000/svg" viewBox="0 0 252.79 252.81"><defs><style>.cls-1{fill:#fff;}</style></defs><path class="cls-1" d="M110.77,166.67l-.22.16C110.63,166.8,110.74,166.79,110.77,166.67Z"/><path class="cls-1" d="M181.25,187.42l-.14.16C181.24,187.6,181.33,187.59,181.25,187.42Z"/><path class="cls-1" d="M180.16,187.75h0v-.18C180.08,187.63,180.08,187.68,180.16,187.75Z"/><path class="cls-1" d="M176.49,181.65l-.37,0A.26.26,0,0,0,176.49,181.65Z"/><path class="cls-1" d="M111.17,167l.19-.16C111.21,166.78,111.15,166.85,111.17,167Z"/><path class="cls-1" d="M96.08,154.54l-.16.18C96.06,154.74,96.15,154.71,96.08,154.54Z"/><path class="cls-1" d="M178.53,185.56l-.14,0C178.45,185.64,178.49,185.63,178.53,185.56Z"/><path class="cls-1" d="M177.67,184.15l-.15.16C177.66,184.33,177.75,184.31,177.67,184.15Z"/><path class="cls-1" d="M.41,128.26H.28a.2.2,0,0,0,.13,0Z"/><path class="cls-1" d="M178.14,184.92l-.14.16C178.14,185.1,178.23,185.09,178.14,184.92Z"/><path class="cls-1" d="M93.49,78.08A4.14,4.14,0,0,0,91,80.65c-.11.34-.1.53.38.47,1.15-.16,2.29-.55,3.43-.62,3.43-.22,6.88-.27,10.33-.33,2.49,0,5,0,7.47,0a89.26,89.26,0,0,1,10,0c.1-.07.28,0,.32-.18-1.47-1.19-3-2.25-4.42-3.55a1,1,0,0,0-1.11-.26,28.08,28.08,0,0,1-6.51,1c-4,.13-7.89-.17-11.83,0A15.49,15.49,0,0,0,93.49,78.08Z"/><path class="cls-1" d="M122.52,80.15c.17.12.38.21.54.06S123,80,122.84,80C122.86,80.26,122.68,80.2,122.52,80.15Z"/><path class="cls-1" d="M57.6,80.3c-.12,0-.3.14-.24.21s.38.07.56-.05h0C57.76,80.51,57.59,80.59,57.6,80.3Z"/><path class="cls-1" d="M71.93,100.8l.18-.15C72,100.59,71.91,100.65,71.93,100.8Z"/><path class="cls-1" d="M83.45,64.57a.69.69,0,0,1,.16,0,8.81,8.81,0,0,1-1.11,4.15,3,3,0,0,1-4.38,1.08,10.66,10.66,0,0,1-1.64-1.32c-.42.74-.81,1.48-1.25,2.18-.21.34-.11.53.14.78C78.53,74.61,83,73.93,85,70a16.58,16.58,0,0,0,1.42-8.25A10.71,10.71,0,0,0,84.7,55.6a5.29,5.29,0,0,0-8.08-.67,8,8,0,0,0-1.37,8.27C76.65,66.6,81.53,67.43,83.45,64.57Zm-5.29-7.15a3,3,0,0,1,4.22-.33A3.55,3.55,0,0,1,83.51,60a3.25,3.25,0,0,1-2,3.28,3.06,3.06,0,0,1-3.28-.76A4.26,4.26,0,0,1,78.16,57.42Z"/><path class="cls-1" d="M66.4,57.9c.72-.28,1.46-.51,2.27-.8v14c0,2,0,2,2.09,2,.46,0,.63-.11.63-.6q0-9.15,0-18.3c0-.53-.19-.6-.67-.65a6.54,6.54,0,0,0-3.19.83c-.71.3-1.77.36-2,1s.22,1.48.34,2.24C65.9,58,66,58,66.4,57.9Z"/><path class="cls-1" d="M57.6,80.3l.32.16a110.77,110.77,0,0,1,11.81-.16c3.65,0,7.31.19,11,.06a20.92,20.92,0,0,1,4.81.06,23.36,23.36,0,0,0,4.15.71,3.29,3.29,0,0,0-1.52-2.42,7.2,7.2,0,0,0-2.55-1.08,35.65,35.65,0,0,0-8.75-.47c-4.66.06-9.33.37-13.91-.91a.61.61,0,0,0-.7.14A31.87,31.87,0,0,1,57.6,80.3Z"/><path class="cls-1" d="M113.3,71.48a7.39,7.39,0,0,0,1-7.56,4.91,4.91,0,0,0-5.15-3.23A4.48,4.48,0,0,0,106,62.52a8.29,8.29,0,0,1,1.38-4.86,2.77,2.77,0,0,1,3.1-1.06,6.32,6.32,0,0,1,2.43,1.57c.44-.8.84-1.58,1.29-2.33.19-.33,0-.45-.19-.64-3.16-3-7.39-2.28-9.4,1.58a14.56,14.56,0,0,0-1.44,6.15,16.1,16.1,0,0,0,.84,6.74C105.84,74.42,111.07,74.31,113.3,71.48Zm-4.18-7.89a3,3,0,0,1,3,3.36c0,2.08-1.24,3.5-3,3.49A3.15,3.15,0,0,1,106,67C106,65,107.25,63.59,109.12,63.59Z"/><path class="cls-1" d="M119.88,51.13c-.14,7.7.32,15.4-.26,23.09a2.57,2.57,0,0,0,.78,2.42,34.87,34.87,0,0,0,3.84,2.67,19.18,19.18,0,0,1-.38-5.27c.21-7.24,0-14.47.11-21.71a.55.55,0,0,0-.48-.63,9.52,9.52,0,0,1-3.2-1.71c-.19-.15-.33-.41-.73-.34A2,2,0,0,1,119.88,51.13Z"/><path class="cls-1" d="M57.12,79.24a31.86,31.86,0,0,0,3.1-2.46,2.68,2.68,0,0,0,1-2c.06-1.2-.24-2.37-.23-3.56,0-6.65-.14-13.29.16-19.93,0-.23,0-.46,0-.69s.07-.53-.16-.65-.46.15-.65.31a7.16,7.16,0,0,1-2.95,1.51c-.52.13-.63.36-.63.85,0,4.44,0,8.88,0,13.32,0,2.26,0,4.51.05,6.77,0,2.09.3,4.2-.27,6.26,0,.15-.09.35.05.44S57,79.35,57.12,79.24Z"/><path class="cls-1" d="M67.56,97.56l.15-.15C67.55,97.35,67.52,97.43,67.56,97.56Z"/><path class="cls-1" d="M73.5,191.8c.4.37.63.27,1,0a42.12,42.12,0,0,1,4.08-3.1c2.8-1.85,5.61-3.66,9.16-3.63a5.16,5.16,0,0,0,1.15-.21A20.48,20.48,0,0,0,96.57,181c2-1.48,2.6-2.68,1.3-4.8-.84-1.38-.61-2.22.49-3.43.31-.35.62-.69.9-1.07a.73.73,0,0,0-.06-.93.71.71,0,0,0-.79-.35c-.25.05-.51.06-.74.09a1.46,1.46,0,0,1-1.41-1.84,7.62,7.62,0,0,1,.67-1.65c.09-.19.29-.44.13-.64s-.49-.07-.72,0a14.33,14.33,0,0,0-3.75,2.17c-8.09,5.87-15.35,12.73-22.88,19.26-.29.26-.29.4,0,.65C71,189.56,72.27,190.66,73.5,191.8Z"/><path class="cls-1" d="M172.23,207.43c-.16-.36-.29-.47-.68-.28-.84.41-1.69.8-2.56,1.13-.46.18-.47.36-.28.78.85,1.85,1.68,3.72,2.49,5.59,1,2.26,2.11,4.45,2.93,6.76a3.52,3.52,0,0,1-1.37,4.39,10.92,10.92,0,0,1-2.58,1.4c-3.24,1.25-5,.53-6.4-2.65-1.63-3.67-3.27-7.33-4.88-11-.22-.52-.41-.65-.94-.36a18.06,18.06,0,0,1-2.34,1c-.5.19-.5.41-.3.84,1.09,2.4,2.12,4.83,3.22,7.23a51,51,0,0,0,2.78,5.89,6.94,6.94,0,0,0,6.5,3.51,14.2,14.2,0,0,0,7.42-2.84,8,8,0,0,0,2.11-2.26,7.38,7.38,0,0,0,.21-7.09C175.83,215.46,174,211.46,172.23,207.43Z"/><path class="cls-1" d="M.4,125.9a.17.17,0,0,0-.12,0,.18.18,0,0,0,.14,0Z"/><path class="cls-1" d="M202.87,204.4c-1-.12-1.9-.28-2.84-.44-.41-.07-.53,0-.55.47-.13,3.92-2.27,6.52-5.64,8.16a6.88,6.88,0,0,1-8.23-1.64c-2.25-2.69-2.54-6-.66-8.68a9.37,9.37,0,0,1,7.68-3.91c1.73-.09,1.76-.05,2-1.78.08-.65.64-1.5.11-1.91s-1.35-.16-1.95-.21c-.77.07-1.45.09-2.11.19a15.17,15.17,0,0,0-1.89.42c-6.33,1.81-9.85,7.3-8.62,13.41a11,11,0,0,0,12.67,8.58,13.11,13.11,0,0,0,7.42-4.52,11.67,11.67,0,0,0,3.07-7.62C203.33,204.53,203.22,204.44,202.87,204.4Z"/><path class="cls-1" d="M126.76,218.85q-8.1-.73-16.18-1.55c-.52-.05-.64.06-.69.58-.61,6.56-1.23,13.11-1.9,19.66-.08.72.1.87.73.93q8.2.76,16.41,1.59c.52.05.62-.14.65-.58.06-.88.11-1.76.24-2.63.07-.5,0-.66-.55-.71-4.11-.37-8.2-.8-12.31-1.17-.76-.06-1.32-.1-1-.92.13-1.34.28-2.53.34-3.72,0-.53.21-.63.71-.58,1.86.2,3.72.35,5.57.53.4,0,.61,0,.63-.48a25.75,25.75,0,0,1,.27-2.63c.08-.56-.07-.76-.67-.8-1.83-.13-3.66-.34-5.5-.49-.45,0-.56-.2-.51-.62.12-1.06.24-2.12.29-3.18,0-.51.25-.6.69-.55.77.1,1.54.16,2.32.24l10.06,1c.28,0,.47,0,.5-.38.06-1,.17-2,.28-2.94C127.23,219.09,127.22,218.9,126.76,218.85Z"/><path class="cls-1" d="M89,210.53c-.86-.48-1.71-1-2.54-1.5-.34-.21-.49-.14-.67.18-.35.63-.73,1.25-1.1,1.88l-6,10.21C78,216.05,77.27,211,76.78,206c-.19-2.06-.74-3.61-2.82-4.3a.8.8,0,0,1-.26-.16c-.32-.25-.49-.19-.7.17q-5.11,8.72-10.27,17.4c-.24.41-.14.57.23.77.77.42,1.54.86,2.27,1.35.47.32.67.18.92-.26q3.27-5.59,6.58-11.18c.11-.18.16-.43.43-.53,0,.19.09.33.11.48.64,5.17,1.34,10.33,1.89,15.51.15,1.46.58,2.49,2,3a4.24,4.24,0,0,1,1,.59c.3.2.45.17.65-.16q5.13-8.74,10.3-17.48C89.29,210.91,89.35,210.73,89,210.53Z"/><path class="cls-1" d="M142.89,217.23c-.36,0-.73,0-1.09.07-3.3.48-6.61,1-9.92,1.44-.56.08-.5.39-.44.77.2,1.25.4,2.5.59,3.76.8,5.25,1.61,10.5,2.37,15.76.1.7.37.8,1,.69,2.33-.38,4.66-.73,7-1.07a13.89,13.89,0,0,0,5.75-1.74,10.73,10.73,0,0,0,4.43-11.58A9.81,9.81,0,0,0,142.89,217.23ZM149,227.75c0,3.81-2.21,6.35-5.85,6.85-1.59.22-3.18.44-4.76.73-.49.09-.62-.06-.69-.5q-.78-5.29-1.6-10.6c-.08-.54-.14-1.08-.26-1.61s.06-.54.44-.6c1.84-.26,3.68-.59,5.53-.8a6.09,6.09,0,0,1,7,5.1A4.36,4.36,0,0,1,149,227.75Z"/><path class="cls-1" d="M250.94,104.83a124.16,124.16,0,0,0-9.24-30.2,127.07,127.07,0,0,0-60.62-62.19,124.53,124.53,0,0,0-26.53-9.3A126.3,126.3,0,0,0,129.3,0h-5.78a129.29,129.29,0,0,0-20.77,2.19A124.81,124.81,0,0,0,67.09,14.75a126.54,126.54,0,0,0-38.42,31.5A125.9,125.9,0,0,0,0,122.9c0,.78,0,1.55,0,2.33v4.54a126.4,126.4,0,0,0,142.79,122,125.72,125.72,0,0,0,60.54-25.12,126.91,126.91,0,0,0,28.3-30.28,126.21,126.21,0,0,0,19.31-91.5ZM.41,130.44H.28v-6.85H.41a2.93,2.93,0,0,1,.12,2.27.22.22,0,0,1-.11.09,2.9,2.9,0,0,1,.11,2.24.24.24,0,0,1-.12.09A2.09,2.09,0,0,1,.41,130.44ZM206,36.59a24.76,24.76,0,0,1-3.69.83,72.48,72.48,0,0,1-14.78,1.2,65.77,65.77,0,0,1-24.8-5.46A77.74,77.74,0,0,1,130.75,7.53l-.47-.66C159,8,184.14,17.91,206,36.59Zm-7.08,73.16c1.74,1.85,3.45,3.74,5.17,5.61.23.25.47.5.26.89a.62.62,0,0,1-.71.31l-5.17-1.15c-.86-.19-1.73-.34-2.57-.58-.5-.15-.62.06-.74.45-.73,2.35-1.47,4.69-2.2,7a3.61,3.61,0,0,1-.24.65.53.53,0,0,1-.58.3c-.36,0-.49-.32-.59-.64-.55-1.78-1.12-3.55-1.68-5.32,0-.13-.07-.25-.12-.37-.27-.72-.2-1.8-.81-2.09s-1.43.2-2.16.36l-5.68,1.27c-.39.09-.78.22-1-.22s.05-.67.3-.94c1.68-1.84,3.36-3.68,5.06-5.5.38-.41.43-.66,0-1.11-1.7-1.79-3.34-3.62-5-5.44-.27-.29-.6-.56-.35-1s.63-.31,1-.22c2.42.55,4.85,1,7.27,1.63.55.13.74,0,.9-.51.7-2.33,1.44-4.64,2.17-7a2.49,2.49,0,0,1,.3-.71c.34-.43.89-.26,1.09.36q1,3.14,2,6.29c.53,1.69.52,1.69,2.21,1.3l6.37-1.42c.38-.09.72-.15.95.24s-.06.69-.3.95c-1.7,1.86-3.39,3.72-5.12,5.55C198.53,109.15,198.51,109.36,198.88,109.75Zm-22.45,67.71a89.11,89.11,0,0,1-1.72-12.7c-.68-8.17-1.53-16.31-4-24.17a62.19,62.19,0,0,0-6.63-14.42.73.73,0,0,1,.14-1.11c.68-.64,1.32-1.32,1.94-2,.37-.42.57-.41.88.08a66.34,66.34,0,0,1,4.92,9.51,67.92,67.92,0,0,1,4.83,21c.28,3.75.33,7.51.36,11.27a108.91,108.91,0,0,0,.52,12.11,23.06,23.06,0,0,0,3.61,10.38l.68.85a1.25,1.25,0,0,1-.82-.69A23.55,23.55,0,0,1,176.43,177.46Zm4.51,10.84a1,1,0,0,1-.78-.55h0l-.43-.39c.31-.12.34.1.44.21Zm-1.58-1.54c-.22,0-.29-.19-.4-.44C179.28,186.4,179.36,186.54,179.36,186.76Zm-74.25-26.51a5.27,5.27,0,0,1-1.59,1.23,2.74,2.74,0,0,1,.94-1.69c1.57-1.79,3.17-3.56,4.75-5.35q17.24-19.59,34.29-39.35c3.55-4.1,7.07-8.21,10.61-12.32a10.29,10.29,0,0,0,1-1.3,3.9,3.9,0,0,0-.74-5.26,10.91,10.91,0,0,0-2.53-1.68,128.78,128.78,0,0,0,16.4-3.2,119.93,119.93,0,0,0-1,14.58c-.57-.53-1-1-1.51-1.4-2.22-1.74-4.42-1.62-6.39.38-3.17,3.21-6.32,6.45-9.48,9.66L137.42,127.2q-12.34,12.57-24.69,25.16C110.17,155,107.65,157.62,105.11,160.25Zm4.49,6.29-.61-.18-.63-.2c.3-.09.49-.11.62.12C109.2,166.24,109.42,166.17,109.6,166.54Zm-1.75-.6a.43.43,0,0,1-.47-.09C107.55,165.76,107.71,165.73,107.85,165.94Zm-18.23-63.3c-4.82.33-9.64.44-14.39-.71a22.94,22.94,0,0,1-3.3-1.13,2.85,2.85,0,0,1-1.15-.61,3,3,0,0,1,1.33.46c5.87,2,11.87,1.54,17.86.86,5.67-.65,11.3-1.52,17-1.79a61.07,61.07,0,0,1,34.94,8.89c.56.33.58.52.15,1-1,1.14-1,1.15-2.36.37a59.82,59.82,0,0,0-21.63-7.83,78.23,78.23,0,0,0-15.6-.54C98.18,101.83,93.91,102.35,89.62,102.64Zm7.26,53.88-.14,0c0-.11-.14-.27-.1-.32s.18,0,.22.11A1.23,1.23,0,0,1,96.88,156.52ZM53.75,62.24c-.07-3.71-.22-7.42-.09-11.13,0-.56.22-.81.78-.76.13,0,.27,0,.39,0,2.44.46,4.36-.54,6.1-2.11a.72.72,0,0,1,.81-.24,37.2,37.2,0,0,0,12,1.11c3-.09,6.06-.24,9.09-.14a16.18,16.18,0,0,1,3.92.54,4.25,4.25,0,0,1,3.42,3.22c1-2.65,3.16-3.31,5.53-3.61a55.77,55.77,0,0,1,8.86-.1c4.78.16,9.54.19,14.2-1.1a1,1,0,0,1,.94.18c.71.53,1.49,1,2.15,1.53a2.54,2.54,0,0,0,2.16.54c2.72-.32,2.74-.31,2.72,2.39,0,5-.11,10.07-.09,15.1,0,4.46.17,8.92.24,13.38,0,2.15,0,2.17-2.18,2.19-5.21,0-10.42-.18-15.63-.28-2.93,0-5.86,0-8.8,0-.88,0-1.75-.1-2.63-.17-.25,0-.47,0-.51.3-.2,2.06-1.63,2.74-3.42,2.94a22,22,0,0,1-7.42-.28,5.44,5.44,0,0,1-2.06-.87,1.71,1.71,0,0,1-.85-2,57.58,57.58,0,0,1-7.06.11c-6.72-.11-13.43.18-20.15.11l-1.17,0c-1.26,0-1.32,0-1.3-1.32,0-3.19.06-6.38.16-9.57S53.82,65.56,53.75,62.24Zm14,35.17c5.29,2.45,10.83,2.47,16.46,1.8S95.35,97.27,101,96.39c10.28-1.6,20.49-1.72,30.56,1.33A67.58,67.58,0,0,1,146,104.09c.43.25.56.4.16.81a26.82,26.82,0,0,0-1.78,2.06c-.37.49-.66.58-1.24.23a58.08,58.08,0,0,0-29.88-8.56,131,131,0,0,0-18.45,1.23,96.76,96.76,0,0,1-14.73,1,25.9,25.9,0,0,1-12.49-3.25,2.93,2.93,0,0,1-1-.57A1.79,1.79,0,0,1,67.71,97.41Zm87.86-47.83c1.32,1.36,2.58,2.78,3.86,4.17.23.25.44.52.25.9A.69.69,0,0,1,159,55c-1.49-.32-3-.67-4.52-1-.65-.14-1.42-.61-1.93-.31s-.5,1.18-.7,1.81c-.43,1.36-.85,2.72-1.28,4.07-.12.38-.24.78-.73.79s-.66-.38-.79-.81c-.55-1.77-1.14-3.54-1.67-5.32-.15-.51-.3-.7-.9-.55-1.83.46-3.69.82-5.53,1.25-.41.09-.8.13-1-.28s0-.73.29-1c1.29-1.39,2.55-2.8,3.86-4.17.39-.4.34-.62,0-1-1.3-1.38-2.56-2.79-3.85-4.18-.29-.31-.52-.62-.29-1s.61-.36,1-.26c1.81.42,3.64.79,5.45,1.22.55.13.81.07,1-.55.51-1.79,1.1-3.55,1.66-5.33.12-.38.24-.76.73-.78s.67.4.8.8c.56,1.78,1.13,3.55,1.65,5.34.16.54.38.67.92.54,1.84-.44,3.69-.82,5.53-1.25.42-.09.77-.12,1,.29s0,.72-.29,1c-1.26,1.38-2.51,2.77-3.81,4.1C155.1,48.89,155.14,49.14,155.57,49.58Zm-2,27.63c1,1.08,2,2.17,3,3.25a.79.79,0,0,1,.18.93.63.63,0,0,1-.66.34c-1.36-.3-2.74-.56-4.08-.92-.75-.2-1.09-.11-1.29.71-.3,1.25-.75,2.47-1.13,3.7-.12.4-.3.75-.77.74s-.6-.35-.71-.72c-.42-1.36-.86-2.71-1.26-4.07-.13-.42-.27-.57-.75-.44-1.33.34-2.67.61-4,.91-.4.08-.85.22-1.13-.22s.05-.83.35-1.15c.91-1,1.8-2,2.75-3,.39-.4.31-.63,0-1-1-1-1.87-2-2.8-3-.28-.3-.53-.63-.29-1s.61-.36,1-.26c1.31.31,2.64.53,3.93.89.66.18.85,0,1-.6.34-1.23.76-2.42,1.13-3.63.14-.45.22-1,.83-1s.65.52.78.94c.39,1.26.82,2.5,1.17,3.77.15.53.35.64.87.51,1.36-.33,2.73-.6,4.09-.93.4-.09.74-.08,1,.27s.06.68-.21,1c-1,1.06-2,2.15-3,3.2C153.26,76.73,153.27,76.91,153.55,77.21Zm-57,78.92-.61-1.41q-5.2-10.72-10.4-21.43Q78.77,119.36,72,105.42l-2-4c.62.28,1.06.5,1.52.67,1.09.4,2.18.8,3.29,1.14a1.24,1.24,0,0,1,.9.83q6.39,15.9,12.8,31.81L96,154.17c.05.12.08.25.12.37A2.64,2.64,0,0,1,96.53,156.13Zm58.3-34.53a42.39,42.39,0,0,1,1.63,3.94c.38,1.31,0,1.95-1.37,2.21a9.63,9.63,0,0,1-1.08.08,12.72,12.72,0,0,1-2.31-.32,2.8,2.8,0,0,0-3.11,1.08c-2.15,3.19-5.12,5.64-7.67,8.46a45.49,45.49,0,0,0-6.92,9.06,10.54,10.54,0,0,0-1.21,3.58,2.47,2.47,0,0,1-1.45,2.15c-4.51,2-8.5,4.81-12.7,7.32-2,1.18-3.92,2.44-5.87,3.66-.81.5-1.43.44-1.85-.16s-.26-1.1.45-1.74a55.28,55.28,0,0,1,12.24-8.72,11.2,11.2,0,0,0,5.41-6c1.5-3.54,4-6.36,6.74-9,1.65-1.65,3.37-3.24,4.93-5a35,35,0,0,0,6.13-9.94,11.25,11.25,0,0,1,3.4-4.53,39.25,39.25,0,0,1,8.89-5.36c.56-.25,1.17-.57,1.74,0a2.51,2.51,0,0,1,.85,2.23,2.92,2.92,0,0,1-1.24,1.91,11.39,11.39,0,0,1-2.45,1.33c-.68.3-1.39.57-2.06.91A2,2,0,0,0,154.83,121.6ZM152,135.79a16.75,16.75,0,0,1-1,3,92.13,92.13,0,0,1-15,24.49,30.17,30.17,0,0,1-4.05,3.86,1.16,1.16,0,0,1-1.14.25c-1.21-.34-2.44-.63-3.85-1,1.11-.92,2-1.77,3.06-2.53A27.55,27.55,0,0,0,137,156q6.3-10.08,12.35-20.31c.16-.27.3-.55.47-.8a1.13,1.13,0,0,1,1.49-.49A1.15,1.15,0,0,1,152,135.79Zm-41.22,30.88c.2,0,.43,0,.59.17,3.7.91,7.39,1.81,11.08,2.73l52.73,13.18a1.36,1.36,0,0,1,1,.74c.57,1.1,1.2,2.17,1.8,3.26.13.24.24.49.44.9L172.94,186l-61.17-18.8-.6-.19-.62-.17c-.25-.11-.57-.06-.79-.38A2.15,2.15,0,0,1,110.77,166.67Zm67.62,18.91a1,1,0,0,1-.39-.5l-.48-.77a12.15,12.15,0,0,1-1.4-2.64,30.53,30.53,0,0,1-2.34-7.86c-.88-4.66-1.3-9.39-1.87-14.1a75.54,75.54,0,0,0-8.83-28.11,28.21,28.21,0,0,0-1.9-2.93c-.24-.32-.21-.5.07-.77,1.27-1.28,1.27-1.29,2.22.22a64.52,64.52,0,0,1,9.07,24.18c.87,5.23,1.15,10.51,1.55,15.78.34,4.6.76,9.2,2.4,13.57.39.83.79,1.66,1.18,2.5l.47.77a1.26,1.26,0,0,1,.39.64c.15.17.37.29.37.58C178.57,186.09,178.53,185.79,178.39,185.58ZM196.85,68.75c2.25,2.4,4.46,4.84,6.7,7.26.49.53.86,1.07.44,1.79s-1.07.65-1.78.49c-3.18-.73-6.37-1.41-9.55-2.14-.51-.12-.71-.05-.87.49-.95,3.14-1.95,6.27-2.93,9.4-.18.57-.42,1.08-1.05,1.23s-1.27-.25-1.56-1.17q-1.49-4.69-2.95-9.4c-.15-.51-.31-.69-.9-.55-3.25.76-6.51,1.46-9.77,2.2a1.28,1.28,0,0,1-1.55-.56,1.25,1.25,0,0,1,.31-1.61c2.25-2.44,4.48-4.9,6.74-7.33.39-.42.45-.64,0-1.1-2.27-2.42-4.49-4.89-6.74-7.33A1.31,1.31,0,0,1,171,59a1.24,1.24,0,0,1,1.22-.79L176,59c2.15.48,4.3,1,6.43,1.46.49.12.68,0,.83-.46,1-3.14,2-6.27,2.94-9.41.21-.69.5-1.28,1.33-1.27s1.11.62,1.32,1.3c1,3.11,2,6.21,2.91,9.32.16.51.33.64.86.52,3.26-.75,6.52-1.45,9.78-2.19a1.27,1.27,0,0,1,1.25,2.19c-2.27,2.45-4.52,4.93-6.8,7.38C196.55,68.16,196.49,68.36,196.85,68.75ZM123.93.54h5.77a.66.66,0,0,0,0,.14.92.92,0,0,1-.77.26q-2.12,0-4.23,0a.91.91,0,0,1-.77-.27Zm-.09,23.73c.58.16.74,0,.89-.53.38-1.31.82-2.61,1.23-3.92.12-.39.25-.75.75-.75s.63.39.75.76c.43,1.36.87,2.71,1.26,4.07.13.45.31.5.72.4,1.38-.33,2.77-.62,4.16-.94.42-.1.79-.12,1,.29s0,.69-.26,1c-1,1.05-1.92,2.11-2.9,3.14-.31.33-.35.53,0,.87,1,1,1.9,2.05,2.86,3.08.27.29.55.6.32,1s-.66.4-1.09.3c-1.36-.31-2.74-.58-4.09-.92-.48-.12-.61,0-.74.45-.37,1.32-.79,2.62-1.21,3.92-.13.39-.22.84-.77.85s-.65-.4-.78-.81c-.4-1.31-.83-2.61-1.22-3.92-.13-.43-.24-.64-.79-.49-1.35.36-2.72.62-4.08.93-.4.09-.77.15-1-.26s0-.73.26-1c.94-1,1.87-2.08,2.85-3.08.34-.36.36-.58,0-.94-1-1-2-2.13-3-3.2-.2-.23-.41-.48-.21-.83a.68.68,0,0,1,.66-.42C120.91,23.61,122.39,23.89,123.84,24.27Zm-.62-17.4a46.78,46.78,0,0,1-2.94,3.88,76.68,76.68,0,0,1-33.61,24,64.72,64.72,0,0,1-19.92,3.81,75,75,0,0,1-18.6-1.78,5.22,5.22,0,0,1-.59-.19C69.38,17.93,94.49,8,123.22,6.87ZM243.76,154.65A120.2,120.2,0,0,1,14.5,170C-3.7,122.21,10.83,71.66,43,41v.89q0,42.75,0,85.5a77.72,77.72,0,0,0,1.23,13.86c.28,0,.31-.24.4-.38a21.7,21.7,0,0,1,10.58-8.57c5.24-2.06,10.11-1.1,14.69,1.93a22.74,22.74,0,0,1,6.37,6.52,13.8,13.8,0,0,0,5.07,4.94,3,3,0,0,1,1.5,1.72c1.4,4.22,2.88,8.42,4.14,12.68.84,2.84-.16,4.78-3,6a50.76,50.76,0,0,1-11.31,3.56c-.71.11-1.44.15-2.16.22a1,1,0,0,1-1.1-.66.92.92,0,0,1,.57-1.14,11.12,11.12,0,0,1,1.64-.68,73.37,73.37,0,0,0,10.54-4.13A1.65,1.65,0,0,0,83.2,161a33.53,33.53,0,0,0-2.67-7.18c-.12-.26-.26-.51-.36-.77a11.06,11.06,0,0,0-3.85-5,17.7,17.7,0,0,1-4.4-4.8,20.63,20.63,0,0,0-4.63-5.1,11.57,11.57,0,0,0-12.19-1.76,20.48,20.48,0,0,0-9.89,8.29,1,1,0,0,0-.18.87,83.58,83.58,0,0,0,16.82,34.54c1.62,2,3.33,3.9,5.16,5.75,2.86-2.69,5.75-5.33,8.71-7.89a154.36,154.36,0,0,1,17.33-13.55,18.66,18.66,0,0,1,3.72-1.91,2.36,2.36,0,0,1,2.47.35c1.13.88,2.09,1.84,1.6,3.46-.09.3.07.34.29.4a3.32,3.32,0,0,1,2.18,4.7,9,9,0,0,1-1.55,2.31.93.93,0,0,0-.15,1.16,6.49,6.49,0,0,1-1.45,7.77,21.79,21.79,0,0,1-9.56,5.58c-1.29.39-2.59.7-3.91,1a18,18,0,0,0-6,2.92,30.64,30.64,0,0,0-3.49,2.54A83.61,83.61,0,0,0,116,210.21a31.77,31.77,0,0,0-5-7.64,35.43,35.43,0,0,1-3.3-3.63,14.8,14.8,0,0,1-2.58-8.93,11.18,11.18,0,0,1,3-7.4,61.15,61.15,0,0,1,9.65-8.89.73.73,0,0,1,.72-.12l4.61,1.43-4.65,4.45a51.87,51.87,0,0,0-6,6.26,7.56,7.56,0,0,0-.72,8.53,16.34,16.34,0,0,0,2.21,3.47,36.08,36.08,0,0,1,5.67,9.68c.37.85.78,1.69,1.08,2.57a1.07,1.07,0,0,0,1.14.78,84.85,84.85,0,0,0,12.35-.17,83.69,83.69,0,0,0,75.61-72.44,87.61,87.61,0,0,0,.72-11.33v-86a120.23,120.23,0,0,1,33.26,113.84Z"/><path class="cls-1" d="M201.41,180.9c-.74-.17-1.2-.09-1.59.59a10.68,10.68,0,0,1-1.26,1.68.94.94,0,0,0-.07,1.29c2.27,4.07,4.51,8.16,6.75,12.23l4.11,7.44c.77-1,1.47-2,2.22-2.9a.77.77,0,0,0,0-1c-1-1.71-1.89-3.45-2.88-5.15a1,1,0,0,1,.07-1.28q2.13-2.72,4.17-5.51a.81.81,0,0,1,1-.37c1.95.5,3.92,1,5.87,1.46.32.09.57.16.81-.18.74-1,1.52-2,2.33-3.11-.27-.08-.44-.14-.61-.18C215.39,184.23,208.39,182.59,201.41,180.9Zm7.14,6.76c-.71,1-1.43,1.89-2.23,2.94-1-1.73-1.85-3.36-2.82-5.1l4.68,1.06C209.2,186.79,209.2,186.8,208.55,187.66Z"/><path class="cls-1" d="M237.48,106.72a3.38,3.38,0,0,0,1.65-3.39c-.15-1.52,0-1.53-1.57-1.53-6.31,0-12.62,0-18.93,0-.6,0-.82.13-.77.76a16.61,16.61,0,0,1,0,2.34c-.06.67.19.79.81.79,4.49,0,9,0,13.68,0l-.57.45-11.63,9c-.76.58-1.79,1-2.16,1.83s-.08,1.93-.13,2.91c0,.53.17.64.66.64,2.34,0,4.67,0,7,0,4.28,0,8.56,0,12.85,0,.56,0,.78-.11.74-.72a19.38,19.38,0,0,1,0-2.41c0-.56-.09-.74-.71-.74-4.12,0-8.25,0-12.38,0H224.6l.73-.59C229.38,112.93,233.38,109.75,237.48,106.72Z"/><path class="cls-1" d="M227.89,125.47c-6.23,0-11,4.94-10.95,11.47a11,11,0,0,0,22.09-.13C239,130.26,234.33,125.48,227.89,125.47Zm0,18.59a7.14,7.14,0,0,1-7-7.37,7.23,7.23,0,0,1,7.16-7.35,7.13,7.13,0,0,1,7.14,7.33A7.2,7.2,0,0,1,227.86,144.06Z"/><path class="cls-1" d="M228.72,172c-4.81-2.17-9.6-4.4-14.4-6.58-.48-.22-.51-.4-.3-.84.82-1.73,1.6-3.48,2.42-5.21.21-.43.22-.66-.29-.86a21.69,21.69,0,0,1-2.4-1.11c-.52-.28-.69-.09-.9.37q-3.42,7.51-6.9,15c-.22.47-.24.7.3.9s1.33.59,2,.89l.84.39c.28,0,.3-.26.38-.44.78-1.69,1.58-3.37,2.32-5.08.27-.62.49-.76,1.16-.44,4.8,2.25,9.63,4.44,14.44,6.67.43.2.6.17.78-.28a16,16,0,0,1,1-2.18C229.54,172.57,229.39,172.31,228.72,172Z"/><path class="cls-1" d="M234.58,156.3q-9.65-2.81-19.28-5.61c-.48-.14-.63,0-.73.45a25.52,25.52,0,0,1-.72,2.45c-.21.57,0,.73.51.88q9.46,2.72,18.91,5.49c.65.19.89.1,1-.56.22-.93.52-1.84.8-2.84C235,156.36,234.79,156.35,234.58,156.3Z"/><path class="cls-1" d="M23.41,117.53h5.37c2.2,0,4.41,0,6.61,0,.56,0,.8-.09.75-.71a12.09,12.09,0,0,1,0-2.33c.08-.74-.22-.83-.86-.83q-6,0-12,0c-2,0-3.72-.49-4.48-2.54-1.15-3.09-.35-6.84,3.23-8.11.33-.12.32-.24.19-.49-.47-.92-.94-1.85-1.4-2.78-.13-.25-.23-.38-.59-.23a9.45,9.45,0,0,0-3.9,2.72,9.71,9.71,0,0,0-1.89,6.28C14.43,114.25,17.71,117.53,23.41,117.53Z"/><path class="cls-1" d="M93.21,66.2a4.3,4.3,0,0,0,4.58-1.79,7.41,7.41,0,0,1-1.55,5,2.71,2.71,0,0,1-2.68.87,4.49,4.49,0,0,1-2.44-1.41c-.28-.29-.45-.36-.66.07-.31.63-.67,1.23-1,1.83a.42.42,0,0,0,.06.61c2.88,2.94,7.1,2.75,9.27-.6A10,10,0,0,0,99.65,69a18.7,18.7,0,0,0,1-7.64,11.33,11.33,0,0,0-1.35-5.29A5.34,5.34,0,0,0,90,56a7.81,7.81,0,0,0-.5,7.1A4.73,4.73,0,0,0,93.21,66.2Zm-.86-8.69a2.9,2.9,0,0,1,4.67,0,3.89,3.89,0,0,1,.75,2.4c0,2.35-1.69,3.84-3.84,3.39A2.56,2.56,0,0,1,92,61.85,4.15,4.15,0,0,1,92.35,57.51Z"/><path class="cls-1" d="M19.54,141.85c-.26-4.06-.5-8.12-.77-12.18,0-.48.06-.64.55-.65,1.35-.06,2.69-.15,4-.27.52-.05.59.14.61.59.09,1.84.21,3.68.34,5.51,0,.27-.14.72.47.65,1-.1,2-.15,2.94-.19.4,0,.52-.13.48-.55-.14-1.89-.22-3.78-.36-5.67,0-.46.09-.65.57-.66,1,0,2-.09,3-.19.55-.05.75.08.78.69.19,3.64.42,7.29.65,10.94.12,1.86.14,1.86,2,1.7a9.67,9.67,0,0,1,1.31-.07c.57,0,.75-.13.71-.74-.37-5.27-.72-10.54-1-15.82,0-.7-.24-.82-.9-.78q-9.69.66-19.39,1.26c-.53,0-1-.12-1,.8.41,5.5.74,11,1.08,16.53,0,.37.07.56.52.5.75-.08,1.51-.08,2.25-.13C19.64,143,19.62,143,19.54,141.85Z"/><path class="cls-1" d="M42.84,164.07c.45-.14.6-.31.41-.8a21.45,21.45,0,0,1-.76-2.35c-.15-.55-.33-.73-1-.52-3.26,1.09-6.54,2.12-9.81,3.17-1,.34-2.08.65-3.26,1,.2-.32.31-.49.43-.66q4.14-6,8.28-12c1.7-2.47,1.69-2.46.7-5.28-.14-.42-.28-.52-.7-.39q-9.6,3.1-19.2,6.17c-.38.12-.5.26-.35.66.3.85.6,1.7.83,2.58.13.5.33.58.81.42,1.91-.64,3.83-1.24,5.76-1.86l7.43-2.38c-.33.49-.52.79-.73,1.09l-8,11.59c-.55.81-1.41,1.59-1.54,2.46s.52,1.85.77,2.8c.13.49.29.6.8.43,2.13-.72,4.28-1.38,6.42-2.06C34.42,166.77,38.62,165.41,42.84,164.07Z"/><path class="cls-1" d="M45.4,184.4a23.83,23.83,0,0,0-3-5.86,9.16,9.16,0,0,1-1.07-2,1.76,1.76,0,0,1,2-2.43,3.53,3.53,0,0,1,1.72.87,9.26,9.26,0,0,1,3.48,7c0,.65-.17,1.41.11,1.91s1.23.14,1.8.36h.28c1.67.07,1.72.07,1.71-1.58a12.9,12.9,0,0,0-5.44-11,6.45,6.45,0,0,0-5.28-1.3c-3.68.79-5.39,4.38-3.86,8a31.19,31.19,0,0,0,2.2,3.75,14.29,14.29,0,0,1,1.67,3.31,2.41,2.41,0,0,1-1.08,3.08A2.38,2.38,0,0,1,38,188.1a11,11,0,0,1-4.19-6,10.56,10.56,0,0,1-.19-4.84c.09-.6,0-.94-.7-1a20.82,20.82,0,0,1-2.33-.57c-.41-.11-.6,0-.69.42a16.1,16.1,0,0,0-.44,2.92,14.77,14.77,0,0,0,5.91,12,6.3,6.3,0,0,0,5.87,1.46C44.79,191.48,46.51,188.17,45.4,184.4Z"/><path class="cls-1" d="M56.86,191.94c.32-.34.51-.28.79,0s.85.83,1.27,1.25c2.46,2.46,4.93,4.91,7.37,7.39.35.35.57.49,1,0a25.51,25.51,0,0,1,1.87-1.88c.33-.3.39-.49,0-.86q-5.79-5.72-11.53-11.48c-.29-.29-.46-.3-.74,0-.9.94-1.81,1.86-2.73,2.77q-5.73,5.73-11.46,11.45c-.28.29-.45.46-.06.85q6,5.91,11.9,11.88c.28.28.45.33.74,0,.63-.69,1.28-1.37,2-2,.42-.37.31-.59,0-.9s-.88-.88-1.32-1.32c-2.7-2.69-5.41-5.38-8.18-8.15,1.14-1.11,2.25-2.15,3.31-3.26.37-.38.54-.25.83,0,1.34,1.35,2.7,2.66,4,4,.31.32.47.33.77,0,.63-.69,1.29-1.36,2-2,.33-.31.3-.49,0-.79-1.36-1.32-2.68-2.68-4-4-.3-.29-.36-.47,0-.79Q55.74,193.14,56.86,191.94Z"/></svg>