<?xml version="1.0" encoding="utf-8"?>
<!-- Generator: Adobe Illustrator 25.1.0, SVG Export Plug-In . SVG Version: 6.00 Build 0)  -->
<svg version="1.1" id="Layer_1" xmlns="http://www.w3.org/2000/svg" xmlns:xlink="http://www.w3.org/1999/xlink" x="0px" y="0px"
	 viewBox="0 0 14400 14400" style="enable-background:new 0 0 14400 14400;" xml:space="preserve">
<style type="text/css">
	.st0{fill:none;stroke:#000000;stroke-width:57;stroke-miterlimit:10;}
	.st1{fill:none;stroke:#F15A24;stroke-width:26;stroke-miterlimit:10;}
</style>
<path class="st0" d="M6839.47,7604.27c-128.39-2.16-259.91-109.81-257.88-257.88c1.84-134.03,112.35-247.16,250.92-251.73
	c-97.23,41.66-141.68,147.36-110.09,230.18c24.18,63.4,90.63,107.4,166.63,109.59c-7.37-7.06-66.13-65.37-57.33-153.37
	c9.92-99.15,96.52-144.98,102.51-148.02c-26.42,44.63-23.84,100.16,6.1,139.5c34.6,45.47,99.39,61,154.37,35.03
	c3.7,25.06,10.49,94.05-28.27,164.26C7020.97,7554.21,6930.7,7605.8,6839.47,7604.27z"/>
<path class="st1" d="M6834,7604.27c-128.39-2.16-259.91-109.81-257.88-257.88c1.84-134.03,112.35-247.16,250.92-251.73
	c-97.23,41.66-141.68,147.36-110.09,230.18c24.18,63.4,90.63,107.4,166.63,109.59c-7.37-7.06-66.13-65.37-57.33-153.37
	c9.92-99.15,96.52-144.98,102.51-148.02c-26.42,44.63-23.84,100.16,6.1,139.5c34.6,45.47,99.39,61,154.37,35.03
	c3.7,25.06,10.49,94.05-28.27,164.26C7015.51,7554.21,6925.24,7605.8,6834,7604.27z"/>
</svg>
