<svg id="Layer_1" data-name="Layer 1" xmlns="http://www.w3.org/2000/svg" viewBox="0 0 296.35 198.88"><defs><style>.cls-1{fill:#fff;}</style></defs><path class="cls-1" d="M147,0c-.89,1.73-.45,3.58-.45,5.37q0,50.93,0,101.85c0,4.9-1.84,6.22-6.64,5-2.86-.71-1.66-2.92-1.67-4.45-.09-18.38,0-36.76-.06-55.14q0-26.34-.11-52.66Z"/><path class="cls-1" d="M118.07,0c0,35.74-.17,71.48.09,107.22,0,5-1.93,5.33-5.74,5.07-1.92-.12-2.74-.73-2.58-2.62,0-.16,0-.33,0-.49Q110,54.6,110.1,0Z"/><path class="cls-1" d="M132,0c0,21.69,0,43.39.21,65.08,0,3.52-1.54,3.55-4.14,3.56s-4.16,0-4.13-3.55c.19-21.7.1-43.39.1-65.09Z"/><path class="cls-1" d="M174.84,0c0,21.37-.07,42.74,0,64.11,0,3.14-.29,4.65-4.13,4.63s-4.16-1.48-4.13-4.65c.18-21.36.18-42.73.24-64.09Z"/><path class="cls-1" d="M160.9,0c-.05,11-.22,22.09-.08,33.13,0,3.32-.68,4.58-4.31,4.59s-4.31-1.37-4.29-4.63c.07-11-.17-22.06-.29-33.09Z"/><path class="cls-1" d="M188.79,0c.06,11.41,0,22.82.26,34.23.08,3.71-2,3.29-4.39,3.38s-3.93-.21-3.88-3.37c.17-11.41.05-22.83,0-34.24Z"/><path class="cls-1" d="M290.36,137.12c2.88-.7,4,2,6,3.08v5c-1.61,1.57-3.69,1.11-5.63,1.29-1.24.12-3-.26-3.08,1.62s1.2,2.94,3,3.46,4-.88,5.74.59v1c-4.68,3.87-9.66,4.11-12.61.62-3.66-4.34-2.5-11.73,2.46-15.65.84-.48,1.29,0,1.65.68a7.59,7.59,0,0,1,.11,1.43c.06.92-1.26,2.51.89,2.5,1.39,0,1.82-1.15,1.57-2.46-.12-.63-.38-1.23-.5-1.87A1.61,1.61,0,0,1,290.36,137.12Z"/><path class="cls-1" d="M180.85,78.05c0-10.27.22-20.54-.11-30.8-.13-4,1.86-3.56,4.48-3.76,3.17-.25,3.84.89,3.82,3.89q-.21,30.56,0,61.12c0,3.14-.95,3.89-4,3.83s-4.41-.4-4.32-4C181,98.27,180.85,88.16,180.85,78.05Z"/><path class="cls-1" d="M160.74,93.66c0,5.13-.17,10.27.07,15.4.16,3.36-1.75,3.26-4.07,3.21s-4.58.49-4.51-3.29c.19-10.43.21-20.87,0-31.3-.08-4,2.47-3,4.6-3.11,2.32-.16,4.17-.18,4,3.19C160.55,83.05,160.74,88.36,160.74,93.66Z"/><path class="cls-1" d="M174.83,93.45c0,5.12-.17,10.25.06,15.35.13,3-1,3.76-3.7,3.46-2.12-.24-4.65.86-4.57-3.12q.31-15.84,0-31.69c-.07-3.71,2.26-2.8,4.23-2.85s4.27-.6,4.06,3C174.59,82.87,174.83,88.17,174.83,93.45Z"/><path class="cls-1" d="M10.52,143.21c2.41-5,1.73-8.36-1.93-9.39-1.26-.35-3.07-.86-3,1.12.15,7-1.3,14.05,1.23,20.93H0c2.44-7.85,1.74-15.53.46-23.7,2.65,0,5.85,0,9,0s5.81,1.53,6.58,4.87-.21,5.86-3.62,7.11C11.33,144.85,10.51,144.88,10.52,143.21Z"/><path class="cls-1" d="M221.65,173.13c3.41.13,1.88-2.19,1.83-3.73,0-.87-2.55-1-.93-2.23a5.65,5.65,0,0,1,3.78-.82c1.43.18,1.26,1.69,1.26,2.85,0,5-.14,9.93.07,14.89.08,2-1.23,4.54,1.66,6.12,1,.52.14,1.51-1.56,1.85-1.95.4-3.18-1.83-5.12-1.18a2.46,2.46,0,0,1-.64-1.38c.33-5,1-10.07-.89-15A1.93,1.93,0,0,1,221.65,173.13Z"/><path class="cls-1" d="M79.35,155.9H71.29c2.9-5.66,2.57-20.82-.47-24,5.66-2.58,5.94-2.41,6,3.59,0,5,.06,9.94.12,14.91C77,152.34,76.89,154.35,79.35,155.9Z"/><path class="cls-1" d="M171.94,191.78h-8.71a5.25,5.25,0,0,0,2.64-5.63c-.88-6,1.95-12.25-1.53-18.15-.78-1.32,1.72-1.2,2.68-1.58,1.92-.75,2.71.5,2.72,2.28,0,5.59,0,11.19,0,16.78C169.78,187.66,169.5,189.92,171.94,191.78Z"/><path class="cls-1" d="M98.11,133.1c-7.9,4.21-8.9,14.93-2,21.07.57,1.1-.35,1.37-1,1.79-6.88-3.18-8.91-6.85-8-14.37.66-5.21,3.8-8.3,9.68-9.53C97.93,131.65,98.24,132.12,98.11,133.1Z"/><path class="cls-1" d="M111.12,190c2.29-2.79,1.63-5-1.18-7a41.41,41.41,0,0,1-5.8-4.53c-3.15-3.2-2.84-6.26.65-9.56,1.27-.5,1.49.16,1.35,1.22-1.6,5.17,2.53,6.77,5.64,9,5.65,4.11,5.83,8.24.55,11.9C111.17,191.53,111,190.92,111.12,190Z"/><path class="cls-1" d="M90.27,167.22A51.78,51.78,0,0,1,89,172.49c-.81,2.27-.88,3.94,3.15,3.91-4.09.44-4.72,2.53-5.19,5.18a105.78,105.78,0,0,1-2.86,11.48c-.7,2.35-1.73,4.66-5.07,5.82a64.6,64.6,0,0,0,4.4-15.76,50.67,50.67,0,0,1,3-12.65c.66-1.62.8-3.6,2.76-4.42C90.26,165.78,90.56,166.23,90.27,167.22Z"/><path class="cls-1" d="M137.12,139.61c-3.84,3.39-4.41,9.89-1.35,16.32h-7.2c3-5,1.61-10.34,1.43-15.56,0-1-3.22-1.55-.47-2.69,1.35-.56,3.66-1.52,4.34.5,1.13,3.41,2.17-.36,3.14.22C137.54,138.75,137.57,139.16,137.12,139.61Z"/><path class="cls-1" d="M198.78,175.12c1.78-2.14,4.09-2.91,6.62-1.91,2.69,1.06,2.21,3.66,2.41,5.95.37,4.15-1.33,8.57,1.68,12.56h-7.16c2.5-4.61,1.66-9.48,1.27-14.21-.3-3.6-2.89-2-4.82-1.41-.31-.22-.41-.43-.31-.65S198.68,175.12,198.78,175.12Z"/><path class="cls-1" d="M221.65,173.13l0,1c-.78,1.29-2.22,2-3,3.25-3.07,4.87-1.83,8.75,4.07,12.53,0,.32,0,.63,0,.95-5.88,2.4-9.74.42-10.74-5.51C210.62,177.81,214.73,172.65,221.65,173.13Z"/><path class="cls-1" d="M137.12,139.61,137,138.4c5.32-2.71,7.64-1.36,8,4.29.29,4.29-1.37,8.85,1.59,13.1h-7.14c2.66-4.57,1.59-9.52,1.32-14.34C140.68,139.46,139.07,138.8,137.12,139.61Z"/><path class="cls-1" d="M266.11,155.93h-7c1.72-5.92,2.76-11.78-.43-17.59,5.1-2.13,5.45-1.8,5.69,3.7C264.6,146.64,263,151.51,266.11,155.93Z"/><path class="cls-1" d="M187,140.27c-2.22,5.16-2.88,10.28.55,15.54h-7.14c1.59-5.9,3.23-11.88-1.3-17.71,2.79-1,5.36-2.06,6.49,2A.85.85,0,0,1,187,140.27Z"/><path class="cls-1" d="M198.78,175.12v1c-3.75,5.08-1.93,10.34-.48,15.67h-6.94c3-4.92,1.79-10.1,1.61-15.25,0-1.11-3.79-1.74-.51-2.94,1.44-.52,3.62-1.81,4.43,1C197.31,176,198.14,175,198.78,175.12Z"/><path class="cls-1" d="M233.43,153.1c.71,1.85,2.95,0,3.77,1.59-4.85,2.91-7.38,1.63-7.77-3.62-.32-4.28,1.22-8.57-.89-12.93-.73-1.5,2.26-3.16,4-4.52,1.51,1,.62,2.48,1.1,3.57A63.22,63.22,0,0,0,233.43,153.1Z"/><path class="cls-1" d="M44.31,156c-2.82-6.09-4.92-12.51-8.75-18.78,1.65,0,3,0,4.41,0s1.53,0,1.75,1.88a22.31,22.31,0,0,0,4.59,11,.87.87,0,0,1,1.32.08l-2.37,6.87C44.37,157.21,43.8,157.08,44.31,156Z"/><path class="cls-1" d="M157.73,188.91c.68,1.9,2.88.12,3.78,1.6-1.53,2.18-3.72,1.86-5.71,1.17s-1.81-2.79-2.05-4.59c-.57-4.21,1.33-8.45-.88-12.77-1-1.86,2-3.85,3.74-4.3s.63,2,1.3,3A64.58,64.58,0,0,0,157.73,188.91Z"/><path class="cls-1" d="M123.15,175.21c-1.39,4.64-2.19,9.24.94,13.57,1.15,1.87,4.36-1,4.95,2.15-5.17,2-8.27,1.13-10.19-2.9a11.3,11.3,0,0,1,4.1-14.4A1.09,1.09,0,0,1,123.15,175.21Z"/><path class="cls-1" d="M145.84,190.86c-5.6,2.27-9.81,1.12-11.54-3.17-2.38-5.9.11-12.26,5.69-14.49a2,2,0,0,1,.56,1.24,30.62,30.62,0,0,0-1.37,9.53c.17,3.52,1.59,5.49,5.28,5.45A1.78,1.78,0,0,1,145.84,190.86Z"/><path class="cls-1" d="M30.51,155.34c-4.24,1.67-8.08,1.45-10.52-2.91-2.59-4.66-1-10.91,3.33-14.29,1-.44,1.36.15,1.67.9a45.41,45.41,0,0,1-.33,7.28c-.27,4.41,1.2,7.21,5.91,7.68A1.11,1.11,0,0,1,30.51,155.34Z"/><path class="cls-1" d="M193,138.67c1.27-2.92,3.84-1.37,5.68-1.3,2.27.08-.21,1.51.19,2.49,1.22,3,2,6.18,3.14,9.22.26.71,1.1,0,1.66-.18a1.15,1.15,0,0,1,.25,1.58c.34,2.12-.86,3.72-2.29,6.44-2.11-5-3.83-9.46-5.8-13.76-.75-1.62-.47-4-2.92-4.61Z"/><path class="cls-1" d="M270.35,153.91c0-3.57.08-7.15.16-10.72.05-2.14-.7-3.73-3.38-4.55,2.37-1,4.17-2.55,6.32-.45.6.92.74,2.34,2.35,2.14-2.38,4.34-1.4,9-1.23,13.56C273,156.27,271.9,156.27,270.35,153.91Z"/><path class="cls-1" d="M121,137c7.37,3.88,7.91,13.27,1,18.16-1,.41-1.28-.21-1.57-.92-.24-1.86.54-3.57.81-5.37.7-4.68-.81-7.71-5-10.2a.86.86,0,0,1-.32-.8c0-.3.11-.44.19-.44L116,137A10.57,10.57,0,0,1,121,137Z"/><path class="cls-1" d="M250.49,137a10.4,10.4,0,0,1,1,18.07,1.83,1.83,0,0,1-1.45-1.53c-.08-2.11.13-4.22.25-6.33.2-3.67-.65-6.76-3.95-8.82a1.19,1.19,0,0,1,.25-1.4A7.84,7.84,0,0,1,250.49,137Z"/><path class="cls-1" d="M61.29,137.14c3.93-.37,5.05,1.93,5.6,5.33.65,4-2.86,8.78,2.12,12.1.33.22-.7,1.29-1.55,1.51-2,.51-3.49-.6-5-1.69-.17-.16-.33-.33-.5-.5-.33-2.1.22-4.2.11-6.3-.11-1.16.67-2.21.44-3.39-.53-2,.68-4.3-1.26-6C60.75,137.87,60.75,137.5,61.29,137.14Z"/><path class="cls-1" d="M152.08,139.46c-.24,4.1,3.54,4.67,5.84,6.49,4.14,3.27,4.23,6.09.07,9.21-1.08.42-1.27-.09-1.06-1,2.19-4.3-1.62-5.3-4-6.92-4.86-3.34-5.37-5.23-2.12-9.08C152,137.85,152.34,138.38,152.08,139.46Z"/><path class="cls-1" d="M219.92,144.2c-.54-2,.66-4.29-1.27-6-.53-.37-.53-.74,0-1.1,3.92-.35,5,1.92,5.57,5.33.69,4-3,8.81,2.11,12.11.33.21-.68,1.28-1.53,1.5-2,.52-3.47-.61-4.94-1.69l-.5-.5c-.32-2.11.22-4.2.12-6.3C219.37,146.42,220.15,145.38,219.92,144.2Z"/><path class="cls-1" d="M246.55,137.31q0,.38,0,.75c-2.38,5.39-1.63,10.87-.52,16.37-.6,1.24-1.52,1.36-2.65.76-6.54-4.76-5.41-14.18,2.2-18.16A.58.58,0,0,1,246.55,137.31Z"/><path class="cls-1" d="M183,177c-.73-1.89-1.75-3.38-4.13-3-.23-.2-.31-.39-.22-.58s.16-.28.24-.28c6.82-.5,7.69.54,8,7.19.17,3.38-2.15,7.44,1.94,10.15.06.05-.28,1.12-.58,1.2-1.56.43-3.23,1-4.4-.82a2.57,2.57,0,0,1-1.45-1.54,5.57,5.57,0,0,1,0-1.47C182,184.18,184,180.67,183,177Z"/><path class="cls-1" d="M140.06,174.22l-.07-1c4.33-1,7.92-.16,9.7,4.33a11.3,11.3,0,0,1-3.85,13.33l-.89-1c-1-2.22-.35-4.55-.25-6.79C144.89,179.13,143.85,176,140.06,174.22Z"/><path class="cls-1" d="M182.83,189l1,1.87c-.92.25-1.84.54-2.77.74-2.94.66-6.17,1.45-7.35-2.42s1-6.34,4.66-7.18c2.86-.66,5.46-1.08,4.59-5a16.85,16.85,0,0,1-.11,11.93,3.41,3.41,0,0,1-1-1.64c-.3-.87-.2-2.15-1.6-2.1a1.34,1.34,0,0,0-1.19,1.36c-.07,1.33,1,1.57,2,1.78A4.53,4.53,0,0,1,182.83,189Z"/><path class="cls-1" d="M30.51,155.34l-.16-1.4c-1.29-2.22-.19-4.52-.16-6.77,0-3.28-.58-6.2-2.92-8.62a1.16,1.16,0,0,1,.16-1.4c4.41-.61,6.9,1.62,7.9,5.64C36.78,148.68,35.13,152.78,30.51,155.34Z"/><path class="cls-1" d="M116.14,137.39l0,1.06a38.87,38.87,0,0,0,.4,15.93c-.57,1.27-1.48,1.43-2.63.79-4.77-2.25-4.09-6.58-3.75-10.54C110.49,141.05,112.1,138.12,116.14,137.39Z"/><path class="cls-1" d="M10.52,143.21a2,2,0,0,0,2,.95c-2.37,2.5.55,3.76,1.42,5.34a17.64,17.64,0,0,0,6.08,6c-4.07,1.46-6.6.58-8.42-2.53a29.51,29.51,0,0,0-3-4.47C5.85,145.41,7.1,144,10.52,143.21Z"/><path class="cls-1" d="M62.55,144.2c1,.82.74,1.93.73,3a4.7,4.7,0,0,1-.75.6c-4.68,2.83-4.69,3.11-.26,6.3l.23.3c-2,2.43-4.6,2.23-7.09,1.12a3.7,3.7,0,0,1-2-4.13c.4-2.94,2.18-4.44,5-5.34C59.76,145.59,61.74,146.08,62.55,144.2Z"/><path class="cls-1" d="M219.92,144.2c1,.82.74,1.93.72,3a5.39,5.39,0,0,1-.74.6c-4.68,2.84-4.69,3.11-.25,6.31l.21.29c-2,2.43-4.61,2.25-7.1,1.12-1.82-.83-2.37-2.69-2-4.62.56-2.66,2.33-4,4.93-4.85C217.12,145.59,219.11,146.08,219.92,144.2Z"/><path class="cls-1" d="M203.88,150.48l-.25-1.58a16.49,16.49,0,0,1,2.11-6.88c.84-1.72,1.12-3.26-1.37-4.74h6C207.79,141.63,206.87,146.55,203.88,150.48Z"/><path class="cls-1" d="M95.15,156l1-1.79,1.07.19a8.19,8.19,0,0,0,4.9-.1c2.49-.76,3.42-3.19,5.08-5.22,1,5.77.29,6.82-4.72,7.1C100,156.27,97.59,156,95.15,156Z"/><path class="cls-1" d="M156.93,154.15l1.06,1c-2.33,1.75-5,1.19-7.44.7a3,3,0,0,1-2.61-3.1,2.3,2.3,0,0,1,2.09-2.33c2.27-.3,1.28,1.73,1.69,2.73C153,156.19,155,155,156.93,154.15Z"/><path class="cls-1" d="M44.31,156l.95,1.08c-.35,2.33-.9,4.61-3.45,5.48-1.59.55-3.06.07-3.46-1.71-.49-2.22.88-1.82,2.34-1.52C43.3,159.86,43.11,157.12,44.31,156Z"/><path class="cls-1" d="M275.8,140.33c-2.09.73-2.6-.28-2.35-2.14.76.66,1.35,1.27,2.34.06a3.37,3.37,0,0,1,4.82-.7,2.19,2.19,0,0,1,.49,3.09c-1.63,2.73-2.82-.71-4.32-.42C276.46,140.28,276.13,140.3,275.8,140.33Z"/><path class="cls-1" d="M157.73,188.91a28.2,28.2,0,0,1,.18-15.9c1.25.21,2.63-.48,4.25.92-5.79.33-4.27,4.38-4.36,7.6C157.72,184,157.75,186.45,157.73,188.91Z"/><path class="cls-1" d="M233.43,153.1a28.87,28.87,0,0,1,.19-15.91c1.24.24,2.62-.44,4.22.89-4.54.44-4.63,3.37-4.4,6.67C233.63,147.52,233.45,150.32,233.43,153.1Z"/><path class="cls-1" d="M48.3,144.05c-.18-2.22,2.16-4.63-1.24-6.7h6.61c-2.8,2.62-3.06,6-4.49,8.76C47.38,146.06,47.86,145.05,48.3,144.05Z"/><path class="cls-1" d="M178.84,173.11a8.23,8.23,0,0,1,0,.86c-.31.56-.65,1.1-.92,1.68-.52,1.14.51,3.26-1.91,3.17a2.16,2.16,0,0,1-2-1.83c-.34-1.7.79-2.64,2.07-3.46A3.52,3.52,0,0,1,178.84,173.11Z"/><path class="cls-1" d="M111.12,190l1.21,1.05c-7.32,2.63-9.64,1.56-11.1-6.72C104.21,188.63,106.39,192.4,111.12,190Z"/><path class="cls-1" d="M187,140.27l-1.4-.16c1.87-3.44,4.22-4.52,7.38-1.45l-.09-.12C192.24,143.69,189.11,140.26,187,140.27Z"/><path class="cls-1" d="M104.5,132.1c2.75,1.18,2.75,1.18,2.12,6.16-2-1.74-2.68-4.67-5.45-5.15C101.67,130.77,103.27,132.05,104.5,132.1Z"/><path class="cls-1" d="M262.45,130.24a2.31,2.31,0,0,1-.45,4.59,2.25,2.25,0,0,1-2.09-2.79A2.16,2.16,0,0,1,262.45,130.24Z"/><path class="cls-1" d="M123.15,175.21l-.2-1.58c2.53-1.46,5-.76,7.45.24,1.35.54,1,1.42.75,2.37-.18.76,0,1.9-1.1,1.82a2.47,2.47,0,0,1-1.82-1.35C127.28,173.39,125.48,173.52,123.15,175.21Z"/><path class="cls-1" d="M90.27,167.22l-1.09-1.17c1.94-1.83,4.19-1.68,6.41-.82a2.8,2.8,0,0,1,1.3,1.87A1.77,1.77,0,0,1,95.61,169a1.3,1.3,0,0,1-1.92-.91C93.05,165.75,91.64,166.58,90.27,167.22Z"/><path class="cls-1" d="M154.91,137.1a27.14,27.14,0,0,1,3.38.15,2.26,2.26,0,0,1,2,2.41,2.17,2.17,0,0,1-1.73,2.13c-1.94.51-1.3-1.35-1.89-2.11a13.4,13.4,0,0,0-1.74-1.62c-.32-.21-.43-.42-.33-.64S154.81,137.1,154.91,137.1Z"/><path class="cls-1" d="M112.34,168c4.45-.08,2.21,3.16,3.11,6-2.49-1.82-3-4.4-5.33-5C110.19,167,111.31,167.6,112.34,168Z"/><path class="cls-1" d="M57.5,139.63c-.35,1.12.73,2.83-1.22,3.22a1.94,1.94,0,0,1-1.64-.84c-.81-1.66-.76-3.2,1.34-4C57.38,137.73,57.73,138.4,57.5,139.63Z"/><path class="cls-1" d="M214.86,139.6c-.35,1.12.73,2.84-1.21,3.25A1.93,1.93,0,0,1,212,142c-.82-1.66-.79-3.21,1.34-4C214.73,137.7,215.07,138.39,214.86,139.6Z"/><path class="cls-1" d="M270.35,153.91c1.41,1.7,2.82,1.7,4.22,0l3.23,1.54-.07.68c-2.5,0-5,0-7.49,0-.59,0-1.83.38-1.35-1C269.06,154.59,269.84,154.3,270.35,153.91Z"/><path class="cls-1" d="M112.34,168a2.66,2.66,0,0,0-2.22,1,6.38,6.38,0,0,0-4,1.17l-1.35-1.22C107.15,167.24,109.63,166.64,112.34,168Z"/><path class="cls-1" d="M243.38,155.19c.83-.12,1.69-.17,2.16-1a6.63,6.63,0,0,1,5,0l1,.92A7.33,7.33,0,0,1,243.38,155.19Z"/><path class="cls-1" d="M104.5,132.1c-1.13.28-2.47-.13-3.33,1H98.11l-1.23-1A9.21,9.21,0,0,1,104.5,132.1Z"/><path class="cls-1" d="M113.94,155.17c.83-.11,1.69-.17,2.14-1a7.14,7.14,0,0,1,5,0l1,1A7.58,7.58,0,0,1,113.94,155.17Z"/><path class="cls-1" d="M48.3,144.05l.88,2.06-1.55,4.09-1.32-.08Q47.3,147.07,48.3,144.05Z"/><path class="cls-1" d="M129,190.93c-1.14-1.87-3.94,0-4.95-2.15,2.26.67,4.48.87,6.5-1C131.4,189.91,130.28,190.46,129,190.93Z"/><path class="cls-1" d="M214.86,139.6,213.34,138c1.59-1.35,3.43-1.27,5.31-.9v1.1A3.61,3.61,0,0,0,214.86,139.6Z"/><path class="cls-1" d="M57.5,139.63,56,138.05c1.59-1.36,3.43-1.27,5.31-.91v1.1A3.58,3.58,0,0,0,57.5,139.63Z"/><path class="cls-1" d="M79.35,185.44c0-2.23,0-4.45,0-6.68A6.38,6.38,0,0,1,79.35,185.44Z"/><path class="cls-1" d="M121,137l-5,.07A4,4,0,0,1,121,137Z"/><path class="cls-1" d="M246.55,137.31l-1-.28a3.86,3.86,0,0,1,4.91-.07Z"/><path class="cls-1" d="M154.91,137.1c0,.32,0,.64,0,1l-2.85,1.4-1.24-1.31C151.92,136.74,153.43,137,154.91,137.1Z"/><path class="cls-1" d="M102.11,154.26a3.79,3.79,0,0,1-4.9.1Z"/><path class="cls-1" d="M287.39,139.2l-1.19-1.11c1.15-1.33,2.63-1.24,4.16-1,0,.32,0,.65,0,1C289.68,139.23,288.75,139.8,287.39,139.2Z"/><path class="cls-1" d="M27.43,137.15a5.41,5.41,0,0,1,0,.9,2.26,2.26,0,0,1-3,1.22l-1.16-1.13C24.45,136.81,25.93,137,27.43,137.15Z"/><path class="cls-1" d="M79.3,178.76c-2.24-3.73-5.36-4.08-8.76-1.9-3,1.94-4,5.18-4.12,8.57-.12,2.79.65,5.47,3.65,6.34s5.82-.35,7.79-2.82a14.16,14.16,0,0,0,1.49-3.51A12.72,12.72,0,0,0,79.3,178.76Zm-3.75,6.79c-.86,2-1.55,3.64-2.68,3.7a2.4,2.4,0,0,1-1.73-1c-.44-.54-.69-1.22-.76-3.13-.1-2.77-.15-4.16.76-5.3a3.34,3.34,0,0,1,2.3-1.34,3.55,3.55,0,0,1,3.13,2.37C77,182.06,76.54,183.22,75.55,185.55Z"/><path class="cls-1" d="M172.77,145.23c1.55-.7,4.58,1.18,4.54-2.08,0-2.89-1.26-5.48-4.79-5.94-6.72-.88-10.53,3.86-9.64,11.95.33,3.07,1.73,5.52,4.59,6.5s5.79,1.22,8.87-2.16a16.35,16.35,0,0,0-2.73-.17c-4.57.78-6.69-1.69-6.71-5.74C166.87,142.75,170.82,146.12,172.77,145.23Zm-6-3.94c-.2-.6.88-1.62,2-2.08a5.18,5.18,0,0,1,2.34-.3c1.34,0,2,0,2.6.55s1.06,1.92.59,2.51-1.06,0-3.66.09a8.29,8.29,0,0,1-2.8-.21C167,141.62,166.86,141.41,166.82,141.29Z"/></svg>